<mxfile host="Electron" modified="2023-05-31T04:15:56.773Z" agent="Mozilla/5.0 (Windows NT 10.0; Win64; x64) AppleWebKit/537.36 (KHTML, like Gecko) draw.io/21.2.8 Chrome/112.0.5615.165 Electron/24.2.0 Safari/537.36" etag="v0-Dd1Ym0KIlMNtV1AO0" version="21.2.8" type="device">
  <diagram name="Page-1" id="udG1p_EPlmIC68ODvqwW">
    <mxGraphModel dx="915" dy="823" grid="1" gridSize="10" guides="1" tooltips="1" connect="1" arrows="1" fold="1" page="1" pageScale="1" pageWidth="850" pageHeight="1100" math="0" shadow="0">
      <root>
        <mxCell id="0" />
        <mxCell id="1" parent="0" />
        <mxCell id="K81yg2EatymCt2yA2O3A-5" style="edgeStyle=orthogonalEdgeStyle;rounded=0;orthogonalLoop=1;jettySize=auto;html=1;exitX=0.5;exitY=0;exitDx=0;exitDy=0;entryX=0;entryY=1;entryDx=0;entryDy=0;" edge="1" parent="1" source="K81yg2EatymCt2yA2O3A-2" target="K81yg2EatymCt2yA2O3A-1">
          <mxGeometry relative="1" as="geometry">
            <mxPoint x="320" y="160" as="targetPoint" />
          </mxGeometry>
        </mxCell>
        <mxCell id="K81yg2EatymCt2yA2O3A-6" style="edgeStyle=orthogonalEdgeStyle;rounded=0;orthogonalLoop=1;jettySize=auto;html=1;exitX=0.5;exitY=0;exitDx=0;exitDy=0;entryX=1;entryY=1;entryDx=0;entryDy=0;" edge="1" parent="1" source="K81yg2EatymCt2yA2O3A-3" target="K81yg2EatymCt2yA2O3A-1">
          <mxGeometry relative="1" as="geometry">
            <mxPoint x="570" y="160" as="targetPoint" />
          </mxGeometry>
        </mxCell>
        <mxCell id="K81yg2EatymCt2yA2O3A-1" value="Recommender&lt;br&gt;Model" style="ellipse;whiteSpace=wrap;html=1;" vertex="1" parent="1">
          <mxGeometry x="365" y="100" width="120" height="80" as="geometry" />
        </mxCell>
        <mxCell id="K81yg2EatymCt2yA2O3A-13" style="edgeStyle=orthogonalEdgeStyle;rounded=0;orthogonalLoop=1;jettySize=auto;html=1;exitX=0.5;exitY=0;exitDx=0;exitDy=0;entryX=0;entryY=1;entryDx=0;entryDy=0;" edge="1" parent="1" source="K81yg2EatymCt2yA2O3A-11" target="K81yg2EatymCt2yA2O3A-2">
          <mxGeometry relative="1" as="geometry">
            <mxPoint x="240" y="320" as="targetPoint" />
          </mxGeometry>
        </mxCell>
        <mxCell id="K81yg2EatymCt2yA2O3A-14" style="edgeStyle=orthogonalEdgeStyle;rounded=0;orthogonalLoop=1;jettySize=auto;html=1;exitX=0.5;exitY=0;exitDx=0;exitDy=0;entryX=1;entryY=1;entryDx=0;entryDy=0;" edge="1" parent="1" source="K81yg2EatymCt2yA2O3A-12" target="K81yg2EatymCt2yA2O3A-2">
          <mxGeometry relative="1" as="geometry">
            <mxPoint x="410" y="280" as="targetPoint" />
          </mxGeometry>
        </mxCell>
        <mxCell id="K81yg2EatymCt2yA2O3A-2" value="Retrieval&lt;br&gt;Model&lt;br&gt;(Two tower model)" style="ellipse;whiteSpace=wrap;html=1;" vertex="1" parent="1">
          <mxGeometry x="280" y="210" width="120" height="80" as="geometry" />
        </mxCell>
        <mxCell id="K81yg2EatymCt2yA2O3A-3" value="Ranking&lt;br&gt;Model&lt;br&gt;(deep neural network)" style="ellipse;whiteSpace=wrap;html=1;" vertex="1" parent="1">
          <mxGeometry x="450" y="210" width="120" height="80" as="geometry" />
        </mxCell>
        <mxCell id="K81yg2EatymCt2yA2O3A-11" value="User embedding" style="rounded=0;whiteSpace=wrap;html=1;" vertex="1" parent="1">
          <mxGeometry x="262" y="320" width="70" height="60" as="geometry" />
        </mxCell>
        <mxCell id="K81yg2EatymCt2yA2O3A-12" value="movie&lt;br&gt;embedding" style="rounded=0;whiteSpace=wrap;html=1;" vertex="1" parent="1">
          <mxGeometry x="347" y="320" width="70" height="60" as="geometry" />
        </mxCell>
        <mxCell id="K81yg2EatymCt2yA2O3A-29" style="edgeStyle=orthogonalEdgeStyle;rounded=0;orthogonalLoop=1;jettySize=auto;html=1;exitX=0.5;exitY=0;exitDx=0;exitDy=0;entryX=0.5;entryY=1;entryDx=0;entryDy=0;" edge="1" parent="1" source="K81yg2EatymCt2yA2O3A-15" target="K81yg2EatymCt2yA2O3A-3">
          <mxGeometry relative="1" as="geometry" />
        </mxCell>
        <mxCell id="K81yg2EatymCt2yA2O3A-15" value="" style="rounded=0;whiteSpace=wrap;html=1;" vertex="1" parent="1">
          <mxGeometry x="440" y="320" width="140" height="80" as="geometry" />
        </mxCell>
        <mxCell id="K81yg2EatymCt2yA2O3A-16" value="&lt;font style=&quot;font-size: 10px;&quot;&gt;256&lt;/font&gt;" style="rounded=0;whiteSpace=wrap;html=1;" vertex="1" parent="1">
          <mxGeometry x="455" y="330" width="20" height="60" as="geometry" />
        </mxCell>
        <mxCell id="K81yg2EatymCt2yA2O3A-17" value="&lt;font size=&quot;1&quot;&gt;128&lt;/font&gt;" style="rounded=0;whiteSpace=wrap;html=1;" vertex="1" parent="1">
          <mxGeometry x="500" y="335" width="20" height="50" as="geometry" />
        </mxCell>
        <mxCell id="K81yg2EatymCt2yA2O3A-31" style="edgeStyle=orthogonalEdgeStyle;rounded=0;orthogonalLoop=1;jettySize=auto;html=1;exitX=1;exitY=0.5;exitDx=0;exitDy=0;entryX=1;entryY=0.5;entryDx=0;entryDy=0;" edge="1" parent="1" source="K81yg2EatymCt2yA2O3A-19" target="K81yg2EatymCt2yA2O3A-15">
          <mxGeometry relative="1" as="geometry" />
        </mxCell>
        <mxCell id="K81yg2EatymCt2yA2O3A-19" value="&lt;font style=&quot;font-size: 10px;&quot;&gt;32&lt;/font&gt;" style="rounded=0;whiteSpace=wrap;html=1;" vertex="1" parent="1">
          <mxGeometry x="540" y="345" width="20" height="30" as="geometry" />
        </mxCell>
        <mxCell id="K81yg2EatymCt2yA2O3A-21" value="" style="endArrow=classic;html=1;rounded=0;exitX=1;exitY=0.5;exitDx=0;exitDy=0;entryX=0;entryY=0.5;entryDx=0;entryDy=0;" edge="1" parent="1" source="K81yg2EatymCt2yA2O3A-16" target="K81yg2EatymCt2yA2O3A-17">
          <mxGeometry width="50" height="50" relative="1" as="geometry">
            <mxPoint x="420" y="490" as="sourcePoint" />
            <mxPoint x="470" y="440" as="targetPoint" />
          </mxGeometry>
        </mxCell>
        <mxCell id="K81yg2EatymCt2yA2O3A-23" value="" style="endArrow=classic;html=1;rounded=0;exitX=1;exitY=0.5;exitDx=0;exitDy=0;entryX=0;entryY=0.5;entryDx=0;entryDy=0;" edge="1" parent="1" source="K81yg2EatymCt2yA2O3A-17" target="K81yg2EatymCt2yA2O3A-19">
          <mxGeometry width="50" height="50" relative="1" as="geometry">
            <mxPoint x="495" y="380" as="sourcePoint" />
            <mxPoint x="520" y="380" as="targetPoint" />
          </mxGeometry>
        </mxCell>
        <mxCell id="K81yg2EatymCt2yA2O3A-28" value="&lt;font style=&quot;font-size: 10px;&quot;&gt;Matrix factorization&lt;/font&gt;" style="rounded=0;whiteSpace=wrap;html=1;" vertex="1" parent="1">
          <mxGeometry x="307.5" y="290" width="65" height="30" as="geometry" />
        </mxCell>
        <mxCell id="K81yg2EatymCt2yA2O3A-30" style="edgeStyle=orthogonalEdgeStyle;rounded=0;orthogonalLoop=1;jettySize=auto;html=1;exitX=0.5;exitY=1;exitDx=0;exitDy=0;" edge="1" parent="1" source="K81yg2EatymCt2yA2O3A-15" target="K81yg2EatymCt2yA2O3A-15">
          <mxGeometry relative="1" as="geometry" />
        </mxCell>
      </root>
    </mxGraphModel>
  </diagram>
</mxfile>
